<?xml version="1.0" encoding="utf-8"?>
<!-- Generator: Adobe Illustrator 18.0.0, SVG Export Plug-In . SVG Version: 6.00 Build 0)  -->
<!DOCTYPE svg PUBLIC "-//W3C//DTD SVG 1.1//EN" "http://www.w3.org/Graphics/SVG/1.1/DTD/svg11.dtd">
<svg version="1.1" id="Layer_1" xmlns="http://www.w3.org/2000/svg" xmlns:xlink="http://www.w3.org/1999/xlink" x="0px" y="0px"
	 viewBox="0 0 60 60" enable-background="new 0 0 60 60" xml:space="preserve">
<g>
	<path fill="#FFFFFF" d="M51.9,32.3l0.3-0.5C60.5,19.7,62.3,8.4,57,3c-2-2-4.8-3-8.3-3c-2.5,0-5.2,0.5-8.1,1.5
		c1.8,0.6,3.4,1.4,5,2.4c1.1-0.2,2.1-0.3,3.1-0.3c2.5,0,4.5,0.7,5.8,2c3.9,3.9,1.9,13.5-4.9,23.8L49.1,30l-0.6-0.3
		c-1.8-1-3.7-1.5-5.6-1.5c-6.7,0-12.1,5.4-12.1,12.1c0,2.2,0.6,4.2,1.7,6.2l0.4,0.6l-0.6,0.4L31.5,48c-7.2,5.2-14.7,8.4-20.1,8.4
		c-2.5,0-4.5-0.7-5.8-2c-1.8-1.8-2.4-4.9-1.7-8.9c-0.9-1.6-1.7-3.3-2.4-5c-2.4,7.2-1.9,13,1.5,16.4c2,2,4.9,3.1,8.4,3.1
		c6.3,0,14.1-3.2,22.2-9.1l1.3-0.9l0.5-0.3l0.5,0.3c2.1,1.5,4.5,2.3,7,2.3c6.7,0,12.1-5.4,12.1-12.1c0-2.7-0.9-5.3-2.7-7.5
		L51.9,32.3z M42.8,48.7c-4.7,0-8.5-3.8-8.5-8.5c0-4.7,3.8-8.5,8.5-8.5c4.7,0,8.5,3.8,8.5,8.5C51.3,44.9,47.5,48.7,42.8,48.7z"/>
	<path fill="#FFFFFF" d="M14.3,49.3c1.3-0.3,2.7-0.8,4.1-1.4C12.4,44,8.7,37.3,8.7,30C8.7,18.2,18.2,8.7,30,8.7
		c7.3,0,14,3.7,17.9,9.8c0.6-1.5,1.1-2.9,1.4-4.1C44.6,8.4,37.5,5.1,30,5.1C16.3,5.1,5.1,16.3,5.1,30C5.1,37.5,8.5,44.5,14.3,49.3z"
		/>
</g>
</svg>
