<?xml version="1.0" encoding="utf-8"?>
<!-- Generator: Adobe Illustrator 18.0.0, SVG Export Plug-In . SVG Version: 6.00 Build 0)  -->
<!DOCTYPE svg PUBLIC "-//W3C//DTD SVG 1.1//EN" "http://www.w3.org/Graphics/SVG/1.1/DTD/svg11.dtd">
<svg version="1.1" id="Layer_1" xmlns="http://www.w3.org/2000/svg" xmlns:xlink="http://www.w3.org/1999/xlink" x="0px" y="0px"
	 viewBox="0 0 30 30" enable-background="new 0 0 30 30" xml:space="preserve">
<g>
	<rect x="9.4" y="6.2" fill="#FFFFFF" width="1.9" height="1.9"/>
	<rect x="18.8" y="6.2" fill="#FFFFFF" width="1.9" height="1.9"/>
	<polygon fill="#FFFFFF" points="17.2,30 19.1,30 19.1,19.7 19.1,19.1 19.7,19.1 21.2,19.1 21.9,19.1 21.9,19.7 21.9,23.7 
		23.7,23.7 23.7,17.2 17.2,17.2 	"/>
	<polygon fill="#FFFFFF" points="6.3,23.7 8.1,23.7 8.1,19.7 8.1,19.1 8.8,19.1 10.3,19.1 10.9,19.1 10.9,19.7 10.9,30 12.8,30 
		12.8,17.2 6.3,17.2 	"/>
	<path fill="#FFFFFF" d="M3.1,0v14.4h23.7V0H3.1z M25,2.5v9.4v0.6h-0.6H5.6H5v-0.6V2.5V1.9h0.6h18.7H25V2.5z"/>
</g>
</svg>
