<?xml version="1.0" encoding="utf-8"?>
<!-- Generator: Adobe Illustrator 18.0.0, SVG Export Plug-In . SVG Version: 6.00 Build 0)  -->
<!DOCTYPE svg PUBLIC "-//W3C//DTD SVG 1.1//EN" "http://www.w3.org/Graphics/SVG/1.1/DTD/svg11.dtd">
<svg version="1.1" id="Layer_1" xmlns="http://www.w3.org/2000/svg" xmlns:xlink="http://www.w3.org/1999/xlink" x="0px" y="0px"
	 viewBox="0 0 30 30" enable-background="new 0 0 30 30" xml:space="preserve">
<g>
	<path fill="#FFFFFF" d="M23.5,14.8l-0.1-0.1l0-0.1C22.5,8.9,19.5,3.8,15,0.2c-4.5,3.6-7.5,8.7-8.3,14.4l0,0.1l-0.1,0.1L0,20.4v9.4
		l7.7-4.4l0.2-0.1l0.2,0.1c2.1,1.4,4.4,2.1,6.9,2.1c2.4,0,4.8-0.7,6.9-2.1l0.2-0.1l0.2,0.1l7.7,4.4v-9.4L23.5,14.8z M28.2,21.4v4.7
		v0.7l-0.6-0.3l-4.5-2.5L22,23.2l-1.1,0.8c-1.8,1.2-3.8,1.8-5.9,1.8c-2.1,0-4.1-0.6-5.9-1.8L8,23.2l-1.2,0.7l-4.5,2.5l-0.6,0.3v-0.7
		v-4.7v-0.2l0.1-0.1l5.8-5l0.6-0.5l0.1-0.8c0.7-4.6,2.9-8.8,6.3-12L15,2.5l0.3,0.3c3.4,3.2,5.6,7.4,6.3,12l0.1,0.8l0.6,0.5l5.8,5
		l0.1,0.1V21.4z"/>
	<path fill="#FFFFFF" d="M15,12.9c-1.8,0-3.3,1.5-3.3,3.3c0,1.8,1.5,3.3,3.3,3.3s3.3-1.5,3.3-3.3C18.3,14.3,16.8,12.9,15,12.9z
		 M15,17.8c-0.9,0-1.7-0.8-1.7-1.7c0-0.9,0.8-1.7,1.7-1.7s1.7,0.8,1.7,1.7C16.7,17.1,15.9,17.8,15,17.8z"/>
</g>
</svg>
