<?xml version="1.0" encoding="utf-8"?>
<!-- Generator: Adobe Illustrator 18.0.0, SVG Export Plug-In . SVG Version: 6.00 Build 0)  -->
<!DOCTYPE svg PUBLIC "-//W3C//DTD SVG 1.1//EN" "http://www.w3.org/Graphics/SVG/1.1/DTD/svg11.dtd">
<svg version="1.1" id="Layer_1" xmlns="http://www.w3.org/2000/svg" xmlns:xlink="http://www.w3.org/1999/xlink" x="0px" y="0px"
	 viewBox="0 0 60 60" enable-background="new 0 0 60 60" xml:space="preserve">
<g>
	<path fill="#FFFFFF" d="M30,6.7c1.9,0,3.4-1.5,3.4-3.4C33.4,1.5,31.9,0,30,0s-3.4,1.5-3.4,3.4C26.6,5.2,28.1,6.7,30,6.7z"/>
	<circle fill="#FFFFFF" cx="33.1" cy="48.8" r="1.7"/>
	<path fill="#FFFFFF" d="M44.2,36.1C43.4,34.8,42,34,40.6,34H28.7l-2.1,3.5h14H41l0.2,0.4l9,15.1l0.2,0.4l-0.2,0.4l-1.2,2.4
		l-0.2,0.4h-0.5H11.6h-0.5l-0.2-0.4l-1.2-2.4l-0.2-0.4L9.7,53l14.5-24.2V9.1h-6v3.5H20h0.7v0.7v14.3v0.2L20.7,28L5.6,53.2L9,60H51
		l3.4-6.8L44.2,36.1z"/>
	<circle fill="#FFFFFF" cx="27.5" cy="45.8" r="2.5"/>
	<polygon fill="#FFFFFF" points="39.2,13.3 39.2,12.6 40,12.6 41.7,12.6 41.7,9.1 35.7,9.1 35.7,27.6 39.2,27.6 	"/>
</g>
</svg>
