<?xml version="1.0" encoding="utf-8"?>
<!-- Generator: Adobe Illustrator 18.0.0, SVG Export Plug-In . SVG Version: 6.00 Build 0)  -->
<!DOCTYPE svg PUBLIC "-//W3C//DTD SVG 1.1//EN" "http://www.w3.org/Graphics/SVG/1.1/DTD/svg11.dtd">
<svg version="1.1" id="Layer_1" xmlns="http://www.w3.org/2000/svg" xmlns:xlink="http://www.w3.org/1999/xlink" x="0px" y="0px"
	 viewBox="0 0 30 30" enable-background="new 0 0 30 30" xml:space="preserve">
<g>
	<circle fill="#FFFFFF" cx="15" cy="1.7" r="1.7"/>
	<circle fill="#FFFFFF" cx="16.6" cy="24.4" r="0.9"/>
	<path fill="#FFFFFF" d="M22.1,18.1c-0.4-0.6-1.1-1-1.8-1h-5.9l-1,1.7h7h0.2l0.1,0.2l4.5,7.5l0.1,0.2l-0.1,0.2L24.5,28l-0.1,0.2
		h-0.2H5.8H5.6L5.5,28l-0.6-1.2l-0.1-0.2l0.1-0.2l7.3-12.1V4.5h-3v1.7H10h0.4v0.4v7.1v0.1L10.3,14L2.8,26.6L4.5,30h21l1.7-3.4
		L22.1,18.1z"/>
	<circle fill="#FFFFFF" cx="13.7" cy="22.9" r="1.3"/>
	<polygon fill="#FFFFFF" points="19.6,6.7 19.6,6.3 20,6.3 20.9,6.3 20.9,4.5 17.9,4.5 17.9,13.8 19.6,13.8 	"/>
</g>
</svg>
