<?xml version="1.0" encoding="utf-8"?>
<!-- Generator: Adobe Illustrator 18.0.0, SVG Export Plug-In . SVG Version: 6.00 Build 0)  -->
<!DOCTYPE svg PUBLIC "-//W3C//DTD SVG 1.1//EN" "http://www.w3.org/Graphics/SVG/1.1/DTD/svg11.dtd">
<svg version="1.1" id="Layer_1" xmlns="http://www.w3.org/2000/svg" xmlns:xlink="http://www.w3.org/1999/xlink" x="0px" y="0px"
	 viewBox="0 0 30 30" enable-background="new 0 0 30 30" xml:space="preserve">
<g>
	<path fill="#FFFFFF" d="M4.4,12.2c-0.9-1.2-2-3-1.4-4.2c0.5-0.9,2-1,2.8-1c0.5,0,1,0,1.7,0.1c0.1-0.5,0.2-1,0.4-1.5
		c-0.7-0.1-1.4-0.2-2-0.2c-2.6,0-3.7,1-4.1,1.8c-1.1,1.9,0.2,4.2,1.6,6C3.6,12.9,4,12.6,4.4,12.2z"/>
	<path fill="#FFFFFF" d="M21,13.4c0.4-0.4,0.8-0.7,1.2-1.1c-1.3-1-2.7-1.9-4.1-2.7c-1.4-0.8-2.8-1.5-4.3-2.1c-0.1,0.5-0.2,1-0.3,1.5
		c1.3,0.6,2.6,1.2,3.9,1.9C18.6,11.7,19.9,12.6,21,13.4z"/>
	<path fill="#FFFFFF" d="M26.7,16.7c-0.4,0.4-0.7,0.7-1.1,1.1c0.9,1.2,2,3,1.4,4.2c-0.5,0.9-2,1-2.8,1c-0.5,0-1,0-1.7-0.1
		c-0.1,0.5-0.2,1-0.4,1.5c0.7,0.1,1.4,0.2,2,0.2c2.6,0,3.7-1,4.1-1.8C29.4,20.8,28.1,18.5,26.7,16.7z"/>
	<circle fill="#FFFFFF" cx="15" cy="15" r="1.9"/>
	<path fill="#FFFFFF" d="M18.5,22.6c-0.7,2.8-2,5.8-3.6,5.8c-1.2,0-2.1-1.7-2.7-3c-0.5,0.2-1,0.3-1.5,0.5c0.8,2,2.1,4.1,4.2,4.1
		c2.4,0,4.4-3.2,5.4-8.4c-0.4,0.3-0.8,0.5-1.2,0.7C19,22.4,18.8,22.5,18.5,22.6z"/>
	<path fill="#FFFFFF" d="M28.3,7.3c-0.5-0.8-1.5-1.7-4-1.7c-1.8,0-3.9,0.5-6.3,1.3c0.5,0.2,0.9,0.5,1.3,0.7c0.1,0.1,0.3,0.2,0.4,0.3
		c0,0,0.1,0,0.1,0.1c1.8-0.5,3.3-0.8,4.5-0.8c0.8,0,2.2,0.1,2.7,0.9c0.5,0.9-0.2,2.7-1.9,4.7c-1.9,2.1-4.6,4.3-7.8,6.2
		c-4.2,2.4-8.6,3.9-11.6,3.9c-0.8,0-2.2-0.1-2.7-0.9c-0.7-1.2,0.7-3.8,3.7-6.5c0-0.1,0-0.3,0-0.4c0-0.5,0-1.1,0-1.7
		c-3.6,3-6.6,6.8-5.1,9.4c0.5,0.8,1.5,1.7,4,1.7c3.2,0,7.9-1.5,12.3-4.1C24.5,16.5,30.3,10.7,28.3,7.3z"/>
	<path fill="#FFFFFF" d="M10.9,19.4c-0.2-1.4-0.3-2.9-0.3-4.4c0-7.7,2.3-13.4,4.4-13.4c1.2,0,2.1,1.7,2.7,3c0.5-0.2,1-0.3,1.5-0.5
		C18.4,2.1,17,0,15,0C11.1,0,9,7.7,9,15c0,1.6,0.1,3.3,0.3,4.9C9.9,19.7,10.4,19.5,10.9,19.4z"/>
</g>
</svg>
