<?xml version="1.0" encoding="utf-8"?>
<!-- Generator: Adobe Illustrator 18.0.0, SVG Export Plug-In . SVG Version: 6.00 Build 0)  -->
<!DOCTYPE svg PUBLIC "-//W3C//DTD SVG 1.1//EN" "http://www.w3.org/Graphics/SVG/1.1/DTD/svg11.dtd">
<svg version="1.1" id="Layer_1" xmlns="http://www.w3.org/2000/svg" xmlns:xlink="http://www.w3.org/1999/xlink" x="0px" y="0px"
	 viewBox="0 0 30 30" enable-background="new 0 0 30 30" xml:space="preserve">
<path fill="#FFFFFF" d="M1.2,7.4v15.2L15,30l13.8-7.4V7.4L15,0L1.2,7.4z M14.2,15.8v11.2v0.9l-0.8-0.4l-9-4.8l-0.9-0.5l0.8-0.5
	l6.1-3.3v-1.8l-7,3.8l-0.8,0.4V20v-9.9V9.2l0.8,0.4L14,15.3l0.3,0.1V15.8z M27.2,9.2v0.9v9.9v0.9l-0.8-0.4l-7-3.9v1.8l6.1,3.4
	l0.8,0.5l-0.8,0.5l-9,4.8l-0.8,0.4v-0.9V15.8v-0.3l0.3-0.1l10.4-5.7L27.2,9.2z M15.8,3.1V2.2l0.8,0.4l9,4.8l0.8,0.5l-0.8,0.5
	L15.3,14L15,14.1L14.7,14L4.5,8.3L3.6,7.9l0.8-0.5l9-4.8l0.8-0.4v0.9v6.5L15,10l0.8-0.4V3.1z"/>
</svg>
