<?xml version="1.0" encoding="utf-8"?>
<!-- Generator: Adobe Illustrator 18.0.0, SVG Export Plug-In . SVG Version: 6.00 Build 0)  -->
<!DOCTYPE svg PUBLIC "-//W3C//DTD SVG 1.1//EN" "http://www.w3.org/Graphics/SVG/1.1/DTD/svg11.dtd">
<svg version="1.1" id="Layer_1" xmlns="http://www.w3.org/2000/svg" xmlns:xlink="http://www.w3.org/1999/xlink" x="0px" y="0px"
	 viewBox="0 0 60 60" enable-background="new 0 0 60 60" xml:space="preserve">
<g>
	<path fill="#FFFFFF" d="M46.9,29.6l-0.2-0.2l0-0.3C44.9,17.7,39,7.6,30,0.4c-9,7.2-14.9,17.4-16.7,28.7l0,0.3l-0.2,0.2L0,40.8v18.8
		l15.4-8.8l0.4-0.2l0.4,0.3C20.3,53.6,25.1,55,30,55c4.9,0,9.6-1.5,13.8-4.2l0.4-0.3l0.4,0.2L60,59.6V40.8L46.9,29.6z M56.4,42.8
		v9.3v1.3l-1.2-0.7l-8.9-5.1L44,46.3l-2.2,1.5c-3.5,2.4-7.6,3.6-11.8,3.6c-4.2,0-8.2-1.2-11.8-3.6L16,46.3l-2.3,1.3l-8.9,5.1
		l-1.2,0.7v-1.3v-9.3v-0.4l0.3-0.2l11.6-9.9l1.2-1.1l0.2-1.6c1.4-9.3,5.7-17.6,12.6-24L30,5.1l0.5,0.5c6.8,6.5,11.2,14.8,12.6,24
		l0.2,1.6l1.2,1.1l11.6,9.9l0.3,0.2V42.8z"/>
	<path fill="#FFFFFF" d="M30,25.7c-3.6,0-6.6,3-6.6,6.6c0,3.6,3,6.6,6.6,6.6s6.6-3,6.6-6.6C36.6,28.7,33.6,25.7,30,25.7z M30,35.7
		c-1.8,0-3.3-1.5-3.3-3.3c0-1.8,1.5-3.3,3.3-3.3s3.3,1.5,3.3,3.3C33.3,34.2,31.8,35.7,30,35.7z"/>
</g>
</svg>
