<?xml version="1.0" encoding="utf-8"?>
<!-- Generator: Adobe Illustrator 18.0.0, SVG Export Plug-In . SVG Version: 6.00 Build 0)  -->
<!DOCTYPE svg PUBLIC "-//W3C//DTD SVG 1.1//EN" "http://www.w3.org/Graphics/SVG/1.1/DTD/svg11.dtd">
<svg version="1.1" id="Layer_1" xmlns="http://www.w3.org/2000/svg" xmlns:xlink="http://www.w3.org/1999/xlink" x="0px" y="0px"
	 viewBox="0 0 60 60" enable-background="new 0 0 60 60" xml:space="preserve">
<path fill="#FFFFFF" d="M59.8,18.6c-0.4-1.5-1.4-2.7-2.7-3.5c-0.9-0.5-1.9-0.8-2.9-0.8c-2.1,0-4,1.1-5,2.9c-0.8,1.3-1,2.9-0.6,4.3
	l0.1,0.3l-0.3,0.2l-4,2.3l-0.2,0.1L44,24.4l-5.4-3.1l-0.2-0.1l0-0.3l0-5.6c0,0,0-0.1,0-0.1l0-0.3l0.3-0.1c1.4-0.4,2.6-1.4,3.4-2.7
	c0.8-1.3,1-2.9,0.6-4.4c-0.4-1.5-1.4-2.7-2.7-3.5c-0.9-0.5-1.9-0.8-2.9-0.8c-2.1,0-4,1.1-5,2.9c-1.6,2.8-0.6,6.3,2.1,7.9
	c0.3,0.2,0.7,0.3,1.1,0.5l0.3,0.1l0,0.3l0,0l0,0.1l0,5.5l0,0.3l-0.2,0.1L30,24.5l-0.2,0.1l-0.2-0.1l-5.5-3.1l-0.2-0.1l0-0.3l0-5.6
	c0,0,0-0.1,0-0.1l0-0.3l0.3-0.1c1.4-0.5,2.5-1.4,3.2-2.6c0.8-1.3,1-2.9,0.6-4.4c-0.4-1.5-1.4-2.7-2.7-3.5c-0.9-0.5-1.9-0.8-2.9-0.8
	c-2.1,0-4,1.1-5,2.9c-1.6,2.8-0.6,6.3,2.1,7.9c0.4,0.2,0.8,0.4,1.3,0.5l0.3,0.1l0,0.3l0,0.1l0,0l0,5.6l0,0.3l-0.2,0.1l-6.3,3.7
	c-0.4,0.2-0.7,0.7-0.7,1.2l0,7.3l0,0.3l-0.2,0.1l-3.4,2c0,0-0.1,0-0.1,0.1l-0.3,0.2L9.6,36c-0.3-0.3-0.7-0.5-1-0.7
	c-0.9-0.5-1.9-0.8-2.9-0.8c-2.1,0-4,1.1-5,2.9c-0.8,1.3-1,2.9-0.6,4.4c0.4,1.5,1.4,2.7,2.7,3.5C3.8,45.7,4.8,46,5.8,46
	c2.1,0,4-1.1,5-2.9c0.7-1.3,0.9-2.8,0.6-4.2l-0.1-0.3l0.3-0.2l0,0l0.1,0l3.4-2l0.2-0.1l0.2,0.1l5.5,3.2l0.2,0.1l0,0.3l0,4.8l0,0.3
	l-0.3,0.1c-1.5,0.4-2.8,1.4-3.5,2.7c-1.6,2.8-0.6,6.3,2.1,7.9c0.9,0.5,1.9,0.8,2.9,0.8c2.1,0,4-1.1,5-2.9c0.8-1.3,1-2.9,0.6-4.4
	c-0.4-1.5-1.4-2.7-2.7-3.5c-0.3-0.2-0.6-0.3-0.9-0.4L24,45.1l0-0.3l0-5l0-0.3l0.2-0.1l5.4-3.2l0.2-0.1l0.2,0.1l5.4,3.1l0.2,0.1
	l0,0.3l0,5v0.3l-0.3,0.1c-1.4,0.4-2.5,1.4-3.2,2.6c-1.6,2.8-0.6,6.3,2.1,7.9c0.9,0.5,1.9,0.8,2.9,0.8c2.1,0,4-1.1,5-2.9
	c0.8-1.3,1-2.9,0.6-4.4c-0.4-1.5-1.4-2.7-2.7-3.5c-0.4-0.2-0.8-0.4-1.3-0.5L38.5,45l0-0.3l0-4.9l0-0.3l0.2-0.1l6.3-3.7
	c0.4-0.2,0.7-0.7,0.7-1.2l0-7.4l0-0.3l0.2-0.1l4.1-2.4l0.3-0.2l0.2,0.2c0.3,0.3,0.6,0.5,0.9,0.7c0.9,0.5,1.9,0.8,2.9,0.8
	c2.1,0,4-1.1,5-2.9C60,21.7,60.2,20.1,59.8,18.6z M8.6,41.9c-0.6,1-1.7,1.6-2.9,1.6c-0.6,0-1.1-0.1-1.6-0.4c-0.8-0.4-1.3-1.1-1.5-2
	c-0.2-0.8-0.1-1.7,0.3-2.5c0.6-1,1.7-1.7,2.9-1.7c0.6,0,1.1,0.2,1.6,0.4c0.8,0.4,1.3,1.1,1.5,2C9.2,40.2,9.1,41.1,8.6,41.9z
	 M20.7,12.2c-0.8-0.4-1.3-1.1-1.5-2c-0.2-0.8-0.1-1.7,0.3-2.5c0.6-1,1.7-1.7,2.9-1.7c0.6,0,1.1,0.2,1.6,0.4c0.8,0.4,1.3,1.1,1.5,2
	c0.2,0.8,0.1,1.7-0.3,2.5c-0.6,1-1.7,1.6-2.9,1.6C21.7,12.6,21.2,12.5,20.7,12.2z M24,47.8c0.8,0.4,1.3,1.1,1.5,2
	c0.2,0.8,0.1,1.7-0.3,2.5c-0.6,1-1.7,1.6-2.9,1.6c-0.6,0-1.1-0.1-1.6-0.4c-1.6-0.9-2.1-2.9-1.2-4.5c0.6-1,1.7-1.7,2.9-1.7
	C22.9,47.4,23.5,47.5,24,47.8z M28.2,33.9l-5.4,3.2l-0.2,0.1l-0.2-0.1L16.9,34l-0.2-0.1l0-0.3l0-6.3l0-0.3l0.2-0.1l5.4-3.2l0.2-0.1
	l0.2,0.1l5.4,3.1l0.2,0.1l0,0.3l0,6.3l0,0.3L28.2,33.9z M35.5,12.2c-1.6-0.9-2.1-2.9-1.2-4.5C34.9,6.7,36,6,37.2,6
	c0.6,0,1.1,0.2,1.6,0.4c0.8,0.4,1.3,1.1,1.5,2c0.2,0.8,0.1,1.7-0.3,2.5c-0.6,1-1.7,1.6-2.9,1.6C36.5,12.6,36,12.5,35.5,12.2z
	 M38.8,47.8c0.8,0.4,1.3,1.1,1.5,2c0.2,0.8,0.1,1.7-0.3,2.5c-0.6,1-1.7,1.6-2.9,1.6c-0.6,0-1.1-0.1-1.6-0.4
	c-1.6-0.9-2.1-2.9-1.2-4.5c0.6-1,1.7-1.7,2.9-1.7C37.7,47.4,38.3,47.5,38.8,47.8z M42.7,33.9L37.3,37l-0.2,0.1L36.9,37l-5.5-3.1
	l-0.2-0.1l0-0.3l0-6.3l0-0.3l0.2-0.1l5.4-3.2l0.2-0.1l0.2,0.1l5.4,3.1l0.2,0.1l0,0.3l0,6.3l0,0.3L42.7,33.9z M57.1,21.8
	c-0.6,1-1.7,1.6-2.9,1.6c-0.6,0-1.1-0.1-1.6-0.4c-1.6-0.9-2.1-2.9-1.2-4.5c0.6-1,1.7-1.7,2.9-1.7c0.6,0,1.1,0.2,1.6,0.4
	c0.8,0.4,1.3,1.1,1.5,2C57.6,20.1,57.5,21,57.1,21.8z"/>
</svg>
